<svg xmlns="http://www.w3.org/2000/svg" width="132" height="32" viewBox="0 0 132 32">
  <path id="NOKIA_logo" d="M91.246.973V31.027h4.375V.973ZM44.509.46C35.987.46,29.374,6.851,29.374,16c0,9.561,6.612,15.54,15.135,15.54S59.657,25.561,59.644,16C59.631,7.331,53.031.46,44.509.46ZM55.277,16c0,6.773-4.821,11.262-10.768,11.262S33.741,22.773,33.741,16c0-6.65,4.821-11.262,10.768-11.262S55.277,9.35,55.277,16ZM0,0V31.027H4.465v-20.5L27.665,32V25.567ZM62.934,16,79.17,31.027h6.51L69.419,16,85.68.973H79.17ZM132,31.027h-4.813l-3.519-6.655H107.729l-3.52,6.655H99.4l5.828-11.093h16.154L113.324,4.518,115.7,0h0Z" fill="#fff"/>
</svg>
